<svg height="512pt" viewBox="-35 0 512 512.00006" width="512pt" xmlns="http://www.w3.org/2000/svg"><path d="m438.53125 88.09375c-.949219-.859375-114.34375-65.703125-114.34375-65.703125h-.003906c-2.992188-2.308594-7.148438-2.417969-11.742188.234375l-295.925781 170.851562c-9.121094 5.269532-16.515625 19.394532-16.515625 31.558594v207.261719c0 8.042969 3.242188 13.179687 8.066406 14.238281l-.03125.019532 111.90625 64.609374.039063-.046874c2.835937 1.410156 6.433593 1.164062 10.355469-1.097657l295.925781-170.855469c9.121093-5.265624 16.515625-19.394531 16.515625-31.554687v-207.265625c0-5.65625-1.613282-9.871094-4.246094-12.25zm0 0" fill="#6b7495"/><path d="m442.777344 100.34375c0-5.660156-1.613282-9.871094-4.246094-12.253906l.019531-.011719-.105469-.0625c-.90625-.800781-1.921874-1.398437-3.046874-1.75l-111.210938-63.875s-4.257812-4.089844-11.746094.234375l-295.925781 170.851562c-9.121094 5.269532-16.515625 19.394532-16.515625 31.558594v59.5625l113.820312 65.234375.003907-.003906 328.953125-189.921875zm0 0" fill="#8e44ad"/><path d="m426.261719 339.164062-295.925781 170.855469c-9.121094 5.265625-16.515626-.324219-16.515626-12.484375v-207.265625c0-12.164062 7.394532-26.289062 16.515626-31.554687l295.925781-170.855469c9.121093-5.265625 16.515625.324219 16.515625 12.484375v207.265625c0 12.160156-7.394532 26.289063-16.515625 31.554687zm0 0" fill="#b7b7c7"/><path d="m227.167969 360.082031c0 33.964844-20.652344 73.421875-46.125 88.128907-25.472657 14.707031-46.121094-.90625-46.121094-34.871094 0-33.960938 20.648437-73.417969 46.121094-88.125 25.472656-14.707032 46.125.902344 46.125 34.867187zm0 0" fill="#4f8b9e"/><path d="m220.015625 364.210938c0 28.699218-17.449219 62.035156-38.972656 74.464843-21.523438 12.425781-38.972657-.765625-38.972657-29.464843 0-28.695313 17.449219-62.035157 38.972657-74.460938 21.523437-12.429688 38.972656.761719 38.972656 29.460938zm0 0" fill="#47063f"/><path d="m197.609375 377.148438c0 12.199218-7.417969 26.367187-16.566406 31.648437-9.148438 5.285156-16.566407-.324219-16.566407-12.523437 0-12.195313 7.417969-26.367188 16.566407-31.648438 9.148437-5.28125 16.566406.324219 16.566406 12.523438zm0 0" fill="#4f8b9e"/><path d="m421.679688 247.78125c0 33.964844-20.648438 73.417969-46.121094 88.125s-46.125-.902344-46.125-34.867188c0-33.964843 20.652344-73.417968 46.125-88.125 25.472656-14.707031 46.121094.902344 46.121094 34.867188zm0 0" fill="#4f8b9e"/><path d="m414.527344 251.910156c0 28.695313-17.449219 62.035156-38.96875 74.460938-21.527344 12.429687-38.972656-.761719-38.972656-29.460938 0-28.699218 17.445312-62.035156 38.972656-74.464844 21.519531-12.425781 38.96875.765626 38.96875 29.464844zm0 0" fill="#47063f"/><path d="m392.121094 264.84375c0 12.199219-7.417969 26.371094-16.566406 31.652344-9.148438 5.28125-16.5625-.324219-16.5625-12.523438 0-12.199218 7.414062-26.367187 16.5625-31.652344 9.148437-5.277343 16.566406.328126 16.566406 12.523438zm0 0" fill="#4f8b9e"/><path d="m309.554688 334.601562-62.511719 36.089844c-5.777344 3.335938-10.457031-.203125-10.457031-7.90625v-29.363281c0-7.703125 4.679687-16.652344 10.457031-19.988281l62.511719-36.089844c5.777343-3.335938 10.460937.207031 10.460937 7.90625v29.367188c0 7.699218-4.683594 16.648437-10.460937 19.984374zm0 0" fill="#ecf0f1"/><path d="m320.015625 358.4375-83.429687 48.167969v-20.226563l83.429687-48.167968zm0 0" fill="#4f8b9e"/><path d="m442.777344 159.90625-328.957032 189.925781v-59.5625c0-12.160156 7.394532-26.289062 16.515626-31.554687l295.925781-170.855469c9.121093-5.265625 16.515625.324219 16.515625 12.484375zm0 0" fill="#4f8b9e"/><path d="m151.484375 287.085938c0 8.25-5.015625 17.832031-11.203125 21.40625-6.1875 3.570312-11.203125-.21875-11.203125-8.472657 0-8.25 5.015625-17.832031 11.203125-21.40625 6.1875-3.570312 11.203125.222657 11.203125 8.472657zm0 0" fill="#b7b7c7"/><path d="m430.382812 126.0625c0 8.25-5.015624 17.835938-11.203124 21.40625-6.1875 3.574219-11.203126-.21875-11.203126-8.46875s5.015626-17.832031 11.203126-21.40625 11.203124.21875 11.203124 8.46875zm0 0" fill="#b7b7c7"/><path d="m364.351562 179.125-172.105468 99.367188c-6.1875 3.570312-11.203125-.222657-11.203125-8.472657s5.015625-17.832031 11.203125-21.40625l172.105468-99.367187c6.191407-3.570313 11.207032.222656 11.207032 8.472656s-5.015625 17.832031-11.207032 21.40625zm0 0" fill="#ecf0f1"/><path d="m113.820312 290.269531-113.820312-65.234375v59.5625l113.820312 65.234375zm0 0" fill="#4a1a50"/><path d="m134.921875 211.804688c-11.402344 0-20.648437-9.242188-20.648437-20.644532v-79.90625c0-7.378906 3.9375-14.191406 10.324218-17.878906l156.9375-90.609375c6.386719-3.6875 14.257813-3.6875 20.644532 0 6.386718 3.6875 10.324218 10.5 10.324218 17.878906v79.90625c0 11.402344-9.246094 20.644531-20.644531 20.644531-11.402344 0-20.644531-9.242187-20.644531-20.644531v-44.152343l-115.652344 66.773437v67.988281c.003906 11.402344-9.242188 20.644532-20.640625 20.644532zm0 0" fill="#4a1a50"/><path d="m159.570312 125.941406c-9.984374 0-19.703124-5.183594-25.054687-14.457031-7.980469-13.824219-3.246094-31.5 10.578125-39.480469l103.78125-59.914062c13.820312-7.980469 31.5-3.246094 39.480469 10.578125s3.246093 31.5-10.578125 39.480469l-103.78125 59.914062c-4.550782 2.628906-9.519532 3.878906-14.425782 3.878906zm0 0" fill="#4f8b9e"/><path d="m134.921875 211.804688c-11.402344 0-20.648437-9.242188-20.648437-20.644532v-79.90625c0-7.375 3.9375-14.191406 10.324218-17.878906l7.976563-4.609375c9.878906-5.699219 22.5-2.316406 28.203125 7.554687 5.222656 9.050782 2.820312 20.40625-5.214844 26.632813v68.207031c.003906 11.402344-9.242188 20.644532-20.640625 20.644532zm0 0" fill="#4a1a50"/></svg>